<svg xmlns="http://www.w3.org/2000/svg" viewBox="0 0 64 80" x="0px" y="0px"><title>workshop-conference-meeting-meetup-present-ux</title><g><path d="M16.47,24.46a4.91,4.91,0,1,0-4.91-4.9A4.91,4.91,0,0,0,16.47,24.46Zm0-7.81a2.91,2.91,0,1,1-2.91,2.91A2.91,2.91,0,0,1,16.47,16.65Z"/><path d="M28.18,52.05A5,5,0,0,0,29,49.26,5.08,5.08,0,0,0,24,44.18a5,5,0,0,0-2.53.71l0-3.07H56.82a1,1,0,0,0,1-1V3.5a1,1,0,0,0-1-1H6.49a1,1,0,0,0-1,1V40.82a1,1,0,0,0,1,1h5.07v3A4.94,4.94,0,0,0,8.85,44a5.06,5.06,0,0,0-4.23,7.87,5.55,5.55,0,0,0-2.48,4.6V60.3h2V56.45A3.55,3.55,0,0,1,6.07,53.3l.12.07.3.16a2.32,2.32,0,0,0,.39.18,3.47,3.47,0,0,0,.45.17l.17,0a5.13,5.13,0,0,0,1.35.2,5.05,5.05,0,0,0,1.34-.2l.17,0a3.61,3.61,0,0,0,.46-.17,2.64,2.64,0,0,0,.38-.18l.3-.16s.09,0,.12-.07a3.55,3.55,0,0,1,1.93,3.15V60.3h2V56.45a5.53,5.53,0,0,0-2.48-4.6,5,5,0,0,0,.84-2.64h5v0a5,5,0,0,0,.85,2.79,5.54,5.54,0,0,0-2.48,4.6V60.5h2V56.65a3.54,3.54,0,0,1,1.92-3.15s.09,0,.12.07l.3.16a3.39,3.39,0,0,0,.39.18,4.13,4.13,0,0,0,.45.17l.18.05a4.59,4.59,0,0,0,2.68,0l.18-.05a4.13,4.13,0,0,0,.45-.17,2.64,2.64,0,0,0,.38-.18l.31-.16.12-.07a3.54,3.54,0,0,1,1.92,3.15V60.5h2V56.65A5.54,5.54,0,0,0,28.18,52.05ZM24,46.18a3.08,3.08,0,0,1,2,5.42,3.13,3.13,0,0,1-4,0,3.08,3.08,0,0,1,2-5.42ZM7.49,39.82V4.5H55.82V39.82H21.48l0-2.77a2.8,2.8,0,0,0,.59.07,2.52,2.52,0,0,0,2.51-2.52v-6A3.59,3.59,0,0,0,21,25h-.45a.85.85,0,0,0-.23,0h-7.8a4.46,4.46,0,0,0-4.47,4.47v5.21a2.74,2.74,0,0,0,2.74,2.73,2.92,2.92,0,0,0,.73-.1v2.44ZM8.85,46a3.07,3.07,0,0,1,2.79,1.81v0a3,3,0,0,1,.27,1.24,3.08,3.08,0,0,1-1.09,2.34,3.15,3.15,0,0,1-3,.53,2.8,2.8,0,0,1-.93-.54,3,3,0,0,1-1.09-2.33A3.08,3.08,0,0,1,8.85,46Zm8.71,1.23h0V40.15a1,1,0,1,0-2,0V47.2h-2V34.75h0V30.07a1,1,0,0,0-2,0v4.67h0a.73.73,0,0,1-.73.73.75.75,0,0,1-.74-.73V29.54a2.46,2.46,0,0,1,2.47-2.47h8a.88.88,0,0,0,.24,0H21a1.56,1.56,0,0,1,1.58,1.58v6a.52.52,0,1,1-1,0V30.07a1,1,0,0,0-1-1h0a1,1,0,0,0-1,1l-.12,10.76h0l-.07,6.25-.07.14Z"/><path d="M44.31,51.85A5.07,5.07,0,1,0,35,49.06a5,5,0,0,0,.85,2.79,5.53,5.53,0,0,0-2.48,4.6V60.3h2V56.45A3.56,3.56,0,0,1,37.3,53.3l.13.07a2.69,2.69,0,0,0,.29.16l.39.18a4.13,4.13,0,0,0,.45.17l.19,0a4.56,4.56,0,0,0,2.67,0l.18,0a4.13,4.13,0,0,0,.45-.17,2.76,2.76,0,0,0,.39-.18l.3-.16.12-.07a3.54,3.54,0,0,1,1.92,3.15V60.3h2V56.45A5.54,5.54,0,0,0,44.31,51.85ZM40.08,46a3.07,3.07,0,0,1,2,5.42,3.15,3.15,0,0,1-3,.53,3.64,3.64,0,0,1-.49-.22,3.58,3.58,0,0,1-.45-.31h0A3,3,0,0,1,37,49.06,3.08,3.08,0,0,1,40.08,46Z"/><path d="M59.46,51.85a5,5,0,0,0,.85-2.79A5.08,5.08,0,1,0,51,51.85a5.55,5.55,0,0,0-2.48,4.6V60.3h2V56.45a3.55,3.55,0,0,1,1.93-3.15l.12.07.3.16a2.64,2.64,0,0,0,.38.18,4.28,4.28,0,0,0,.46.17l.17,0a5.13,5.13,0,0,0,1.35.2,5.05,5.05,0,0,0,1.34-.2l.17,0a3.61,3.61,0,0,0,.46-.17,2.64,2.64,0,0,0,.38-.18,2.85,2.85,0,0,0,.3-.16s.09,0,.12-.07a3.55,3.55,0,0,1,1.93,3.15V60.3h2V56.45A5.53,5.53,0,0,0,59.46,51.85ZM55.24,46a3.08,3.08,0,0,1,2,5.42,3.17,3.17,0,0,1-3,.53,2.8,2.8,0,0,1-.93-.54,3,3,0,0,1-1.09-2.33A3.08,3.08,0,0,1,55.24,46Z"/><path d="M23,21.3a1,1,0,0,0,.66.25h.07l12.06-.79a1,1,0,0,0,.94-1.07L36,8.62a1,1,0,0,0-1.06-.93l-2.29.15-.07-1a1,1,0,0,0-1.06-.93L26,6.26a1,1,0,0,0-.93,1.06l.07,1-2.29.15a1,1,0,0,0-.94,1.06l.74,11.06A1,1,0,0,0,23,21.3ZM30.62,8l.14,2-3.49.23-.07-1h0l-.07-1Zm-5.35,2.37.07,1a1,1,0,0,0,.34.68.8.8,0,0,0,.32.19l.11,0a.93.93,0,0,0,.22,0h.07l5.49-.36a.94.94,0,0,0,.37-.11,1,1,0,0,0,.51-.57,1,1,0,0,0,0-.39l-.07-1L34,9.75l.6,9.07-10.06.66L24,10.42Z"/><path d="M38.5,22.23,50.27,25a.93.93,0,0,0,.23,0,1,1,0,0,0,1-.77L54,13.46a1,1,0,0,0-.75-1.2L51,11.74l.23-1a1,1,0,0,0-.75-1.2L45.16,8.29a1,1,0,0,0-.75.12A1,1,0,0,0,44,9l-.23,1L41.49,9.5a1,1,0,0,0-1.2.74L37.76,21A1,1,0,0,0,38.5,22.23Zm10.58-11-.46,2-3.4-.8.23-1h0l.23-1ZM42,11.67l1.26.3L43,13a1,1,0,0,0,.39,1,1.17,1.17,0,0,0,.36.16l5.35,1.26.23,0h.11l.09,0a1,1,0,0,0,.32-.12,1.49,1.49,0,0,0,.14-.12.93.93,0,0,0,.14-.14,1,1,0,0,0,.17-.36l.23-1,1.26.3-2.07,8.84-9.83-2.3Z"/><path d="M31.61,23.27a1,1,0,0,0-1,1l0,1-2.3-.05a1,1,0,0,0-1,1l-.21,11.09a1,1,0,0,0,1,1l12.08.24h0a1,1,0,0,0,1-1l.22-11.08a.94.94,0,0,0-.28-.71.93.93,0,0,0-.7-.31l-2.3-.05,0-1a.94.94,0,0,0-.28-.71,1,1,0,0,0-.7-.31l-5.49-.11Zm7.73,4.17-.18,9.08-10.08-.2.17-9.08,1.3,0,0,1h0a1,1,0,0,0,.28.72,1,1,0,0,0,.7.3l5.49.11h0a1,1,0,0,0,.17,0l.21,0a1.64,1.64,0,0,0,.22-.14l.1-.07h0a1,1,0,0,0,.22-.32,1,1,0,0,0,.08-.38l0-1Zm-3.26-2.08,0,1h0l0,1-3.49-.07,0-1h0l0-1Z"/><rect x="43.77" y="28.06" width="10.08" height="2"/><rect x="43.77" y="31.09" width="7.05" height="2"/><rect x="43.77" y="34.11" width="10.08" height="2"/></g><text x="0" y="79" fill="#000000" font-size="5px" font-weight="bold" font-family="'Helvetica Neue', Helvetica, Arial-Unicode, Arial, Sans-serif">Created by DailyPM</text><text x="0" y="84" fill="#000000" font-size="5px" font-weight="bold" font-family="'Helvetica Neue', Helvetica, Arial-Unicode, Arial, Sans-serif">from the Noun Project</text></svg>