<?xml version="1.0" encoding="UTF-8"?>
<svg version="1.1" viewBox="0 0 538.45 499.87" xmlns="http://www.w3.org/2000/svg">
 <g transform="translate(-105.38 -292.61)">
  <path d="m214.99 292.61s26.588 64.163 58.525 54.327c31.937-9.8366 48.667-19.673 98.617-19.673s66.68 9.8366 98.617 19.673c31.937 9.8366 58.525-54.327 58.525-54.327 124.46 464.49-40 467.14-40 467.14-17.423-4.6684-10.212-2.3598-32.862-4.9315-25.013-2.569 12.233-18.123-82.25-18.123s-56.463 14.91-79.929 17.268c-24.068 2.4767-18.985 0.35812-39.245 5.7867 0 0-164.85-1.2093-40-467.14z" fill="#89a02c"/>
  <path d="m331 368.88c-31.969 0-50.751 19.496-57.119 39.276-11.755 34.662 5.6382 74.777 35.546 94.353 18.136 12.307 44.165 15.804 62.635 2.2771 18.447 13.546 44.481 10.014 62.604-2.2771 29.908-19.577 47.302-59.691 35.546-94.353-6.3347-19.728-21.86-39.261-56.927-39.261-19.928 0.44107-28.398 5.414-41.224 20.204-12.816-14.751-21.166-19.727-41.062-20.219z" fill="#fff"/>
  <path d="m507.89 599.42c0 46.612-60.818 112.56-135.84 112.56-75.023 0-135.84-65.945-135.84-112.56 0-46.612 60.818-56.239 135.84-56.239 75.023 0 135.84 9.6272 135.84 56.239z" fill="#bcd35f"/>
  <path d="m371.08 565.96s-30.843-36.908-23.58-51.933c7.2633-15.025 1.7481-22.538 24.58-22.538s17.317 7.5127 24.58 22.538c7.2633 15.025-25.58 51.933-25.58 51.933z" fill="#a00"/>
  <path d="m272.77 732.83c-0.52862 0.14579-1.0806 0.33034-1.6661 0.54344-4.541 1.6531-6.423 3.7186-6.7196 6.5563-2.5191-2.5271-5.6174-2.9828-10.827-0.56075-9.7931 4.5534-7.141 9.8834-2.2099 20.489 4.931 10.605 26.405 32.621 26.405 32.621s-1.1168-15.417-3.484-28.216c6.5028 9.707 14.874 19.891 14.874 19.891s0.19085-13.908-0.91857-25.765c5.2378 9.2137 11.883 18.751 11.883 18.751s2.4734-26.483-0.17397-36.026c-2.6474-9.5434-3.9104-14.598-12.795-12.133-4.1299 1.1456-6.0113 2.8346-6.5822 5.2578-1.8052-1.8238-4.1409-2.4144-7.7859-1.4078z" fill="#502d16"/>
  <path d="m477.32 732.83c0.52862 0.14579 1.0806 0.33034 1.6661 0.54344 4.541 1.6531 6.423 3.7186 6.7196 6.5563 2.5191-2.5271 5.6174-2.9828 10.827-0.56075 9.7931 4.5534 7.141 9.8834 2.2099 20.489-4.931 10.605-26.405 32.621-26.405 32.621s1.1168-15.417 3.484-28.216c-6.5028 9.707-14.874 19.891-14.874 19.891s-0.19085-13.908 0.91857-25.765c-5.2378 9.2137-11.883 18.751-11.883 18.751s-2.4734-26.483 0.17397-36.026c2.6474-9.5434 3.9104-14.598 12.795-12.133 4.1299 1.1456 6.0113 2.8346 6.5822 5.2578 1.8052-1.8238 4.1409-2.4144 7.7859-1.4078z" fill="#502d16"/>
  <path d="m460.36 416.22c0 20.054-16.257 36.311-36.311 36.311s-36.311-16.257-36.311-36.311 16.257-36.311 36.311-36.311 36.311 16.257 36.311 36.311z" fill="#80b3ff"/>
  <path d="m424.08 389.64c-3.3151 0-6.5241 0.62248-9.4505 1.7314l10.461 25.105-16.593-21.715c-6.6471 4.8307-11.038 12.58-11.038 21.426 0 14.677 11.943 26.62 26.62 26.62s26.548-11.943 26.548-26.62-11.871-26.548-26.548-26.548z"/>
  <path d="m441.69 416.22c0 2.4365-1.9752 4.4116-4.4116 4.4116-2.4365 0-4.4116-1.9752-4.4116-4.4116 0-2.4365 1.9752-4.4116 4.4116-4.4116 2.4365 0 4.4116 1.9752 4.4116 4.4116z" fill="#aef"/>
  <path d="m374.36 416.22c0 20.054-16.257 36.311-36.311 36.311s-36.311-16.257-36.311-36.311 16.257-36.311 36.311-36.311 36.311 16.257 36.311 36.311z" fill="#80b3ff"/>
  <path d="m338.08 389.64c-3.3151 0-6.5241 0.62248-9.4505 1.7314l10.461 25.105-16.593-21.715c-6.6471 4.8307-11.038 12.58-11.038 21.426 0 14.677 11.943 26.62 26.62 26.62s26.548-11.943 26.548-26.62-11.871-26.548-26.548-26.548z"/>
  <path d="m355.69 416.22c0 2.4365-1.9752 4.4116-4.4116 4.4116-2.4365 0-4.4116-1.9752-4.4116-4.4116 0-2.4365 1.9752-4.4116 4.4116-4.4116 2.4365 0 4.4116 1.9752 4.4116 4.4116z" fill="#aef"/>
  <g transform="translate(8.5869)" fill="#dde9af">
   <path d="m360.31 573.67c-5.6463 6.9381-18.314 11.788-33.068 11.788-14.346 0-26.757-4.5753-32.623-11.206 2.0376 8.7039 10.823 17.983 32.794 17.631 21.971-0.35264 31.353-9.2314 32.897-18.213z"/>
   <path d="m312.31 585.67c-5.6463 6.9381-18.314 11.788-33.068 11.788-14.346 0-26.757-4.5753-32.623-11.206 2.0376 8.7039 10.823 17.983 32.794 17.631 21.971-0.35264 31.353-9.2314 32.897-18.213z"/>
   <path d="m396.31 585.67c-5.6463 6.9381-18.314 11.788-33.068 11.788-14.346 0-26.757-4.5753-32.623-11.206 2.0376 8.7039 10.823 17.983 32.794 17.631 21.971-0.35264 31.353-9.2314 32.897-18.213z"/>
   <path d="m480.31 585.67c-5.6463 6.9381-18.314 11.788-33.068 11.788-14.346 0-26.757-4.5753-32.623-11.206 2.0376 8.7039 10.823 17.983 32.794 17.631 21.971-0.35264 31.353-9.2314 32.897-18.213z"/>
   <path d="m354.31 601.67c-5.6463 6.9381-18.314 11.788-33.068 11.788-14.346 0-26.757-4.5753-32.623-11.206 2.0376 8.7039 10.823 17.983 32.794 17.631 21.971-0.35264 31.353-9.2314 32.897-18.213z"/>
   <path d="m438.31 601.67c-5.6463 6.9381-18.314 11.788-33.068 11.788-14.346 0-26.757-4.5753-32.623-11.206 2.0376 8.7039 10.823 17.983 32.794 17.631 21.971-0.35264 31.353-9.2314 32.897-18.213z"/>
   <path d="m330.31 615.67c-5.6463 6.9381-18.314 11.788-33.068 11.788-14.346 0-26.757-4.5753-32.623-11.206 2.0376 8.7039 10.823 17.983 32.794 17.631 21.971-0.35264 31.353-9.2314 32.897-18.213z"/>
   <path d="m470.31 615.67c-5.6463 6.9381-18.314 11.788-33.068 11.788-14.346 0-26.757-4.5753-32.623-11.206 2.0376 8.7039 10.823 17.983 32.794 17.631 21.971-0.35264 31.353-9.2314 32.897-18.213z"/>
   <path d="m396.31 671.67c-5.6463 6.9381-18.314 11.788-33.068 11.788-14.346 0-26.757-4.5753-32.623-11.206 2.0376 8.7039 10.823 17.983 32.794 17.631 21.971-0.35264 31.353-9.2314 32.897-18.213z"/>
   <path d="m396.31 627.67c-5.6463 6.9381-18.314 11.788-33.068 11.788-14.346 0-26.757-4.5753-32.623-11.206 2.0376 8.7039 10.823 17.983 32.794 17.631 21.971-0.35264 31.353-9.2314 32.897-18.213z"/>
   <path d="m430.31 573.67c-5.6463 6.9381-18.314 11.788-33.068 11.788-14.346 0-26.757-4.5753-32.623-11.206 2.0376 8.7039 10.823 17.983 32.794 17.631 21.971-0.35264 31.353-9.2314 32.897-18.213z"/>
   <path d="m358.31 645.67c-5.6463 6.9381-18.314 11.788-33.068 11.788-14.346 0-26.757-4.5753-32.623-11.206 2.0376 8.7039 10.823 17.983 32.794 17.631 21.971-0.35264 31.353-9.2314 32.897-18.213z"/>
   <path d="m432.31 645.67c-5.6463 6.9381-18.314 11.788-33.068 11.788-14.346 0-26.757-4.5753-32.623-11.206 2.0376 8.7039 10.823 17.983 32.794 17.631 21.971-0.35264 31.353-9.2314 32.897-18.213z"/>
  </g>
  <g fill="#445016">
   <path d="m213.13 566.98c-32.434 56.178-98.858 107.92-105.81 103.91-6.9508-4.0131 4.6515-87.411 37.086-143.59 32.434-56.178 61.392-70.805 80.369-59.848s20.788 43.348-11.646 99.526z"/>
   <path d="m218.77 566.79c-29.065 57.993-92.321 113.57-99.496 109.97-7.1754-3.5961-0.51194-87.534 28.553-145.53 29.065-57.993 57.109-74.303 76.699-64.484 19.591 9.8183 23.309 42.047-5.7556 100.04z"/>
   <path d="m225.21 566.25c-25.125 59.805-84.526 119.48-91.926 116.37-7.3997-3.1086-6.3597-87.304 18.765-147.11 25.125-59.805 52.016-77.953 72.219-69.465 20.203 8.4873 26.066 40.395 0.94179 100.2z"/>
  </g>
  <g fill="#445016">
   <path d="m536.08 566.98c32.434 56.178 98.858 107.92 105.81 103.91 6.9508-4.0131-4.6515-87.411-37.086-143.59-32.434-56.178-61.392-70.805-80.369-59.848s-20.788 43.348 11.646 99.526z"/>
   <path d="m530.44 566.79c29.065 57.993 92.321 113.57 99.496 109.97 7.1754-3.5961 0.51194-87.534-28.553-145.53-29.065-57.993-57.109-74.303-76.699-64.484-19.591 9.8183-23.309 42.047 5.7556 100.04z"/>
   <path d="m524 566.25c25.125 59.805 84.526 119.48 91.926 116.37 7.3997-3.1086 6.3597-87.304-18.765-147.11-25.125-59.805-52.016-77.953-72.219-69.465-20.203 8.4873-26.066 40.395-0.94179 100.2z"/>
  </g>
 </g>
</svg>
